<mxfile host="app.diagrams.net" modified="2022-10-25T20:06:50.711Z" agent="5.0 (Windows NT 10.0; Win64; x64) AppleWebKit/537.36 (KHTML, like Gecko) Chrome/106.0.0.0 Safari/537.36" etag="x-cHSkJSSnbkER19j7kA" version="20.5.1" type="github">
  <diagram id="prtHgNgQTEPvFCAcTncT" name="Page-1">
    <mxGraphModel dx="1038" dy="1748" grid="1" gridSize="10" guides="1" tooltips="1" connect="1" arrows="1" fold="1" page="1" pageScale="1" pageWidth="827" pageHeight="1169" math="0" shadow="0">
      <root>
        <mxCell id="0" />
        <mxCell id="1" parent="0" />
        <mxCell id="h8qzJcYPZAnJOUNbfXsu-2" value="" style="rounded=0;whiteSpace=wrap;html=1;" vertex="1" parent="1">
          <mxGeometry x="280" y="-560" width="120" height="240" as="geometry" />
        </mxCell>
        <mxCell id="h8qzJcYPZAnJOUNbfXsu-3" value="TO DO LIST" style="text;html=1;strokeColor=none;fillColor=none;align=center;verticalAlign=middle;whiteSpace=wrap;rounded=0;" vertex="1" parent="1">
          <mxGeometry x="310" y="-550" width="60" height="30" as="geometry" />
        </mxCell>
        <mxCell id="h8qzJcYPZAnJOUNbfXsu-4" value="list 1" style="text;html=1;strokeColor=none;fillColor=none;align=center;verticalAlign=middle;whiteSpace=wrap;rounded=0;" vertex="1" parent="1">
          <mxGeometry x="310" y="-500" width="60" height="30" as="geometry" />
        </mxCell>
        <mxCell id="h8qzJcYPZAnJOUNbfXsu-5" value="list 2&lt;br&gt;" style="text;html=1;strokeColor=none;fillColor=none;align=center;verticalAlign=middle;whiteSpace=wrap;rounded=0;" vertex="1" parent="1">
          <mxGeometry x="310" y="-450" width="60" height="30" as="geometry" />
        </mxCell>
        <mxCell id="h8qzJcYPZAnJOUNbfXsu-6" value="" style="endArrow=classic;html=1;rounded=0;" edge="1" parent="1">
          <mxGeometry width="50" height="50" relative="1" as="geometry">
            <mxPoint x="320" y="-430" as="sourcePoint" />
            <mxPoint x="330" y="-440" as="targetPoint" />
          </mxGeometry>
        </mxCell>
        <mxCell id="h8qzJcYPZAnJOUNbfXsu-7" value="" style="rounded=0;whiteSpace=wrap;html=1;fillColor=#CCCCFF;" vertex="1" parent="1">
          <mxGeometry x="510" y="-550" width="120" height="300" as="geometry" />
        </mxCell>
        <mxCell id="h8qzJcYPZAnJOUNbfXsu-9" value="list 2&lt;br&gt;" style="text;html=1;align=center;verticalAlign=middle;resizable=0;points=[];autosize=1;strokeColor=none;fillColor=none;" vertex="1" parent="1">
          <mxGeometry x="545" y="-540" width="50" height="30" as="geometry" />
        </mxCell>
        <mxCell id="h8qzJcYPZAnJOUNbfXsu-10" value="task 1" style="text;html=1;strokeColor=none;fillColor=none;align=center;verticalAlign=middle;whiteSpace=wrap;rounded=0;" vertex="1" parent="1">
          <mxGeometry x="540" y="-510" width="60" height="30" as="geometry" />
        </mxCell>
        <mxCell id="h8qzJcYPZAnJOUNbfXsu-11" value="task 2" style="text;html=1;strokeColor=none;fillColor=none;align=center;verticalAlign=middle;whiteSpace=wrap;rounded=0;" vertex="1" parent="1">
          <mxGeometry x="535" y="-435" width="60" height="30" as="geometry" />
        </mxCell>
        <mxCell id="h8qzJcYPZAnJOUNbfXsu-12" value="task 3" style="text;html=1;strokeColor=none;fillColor=none;align=center;verticalAlign=middle;whiteSpace=wrap;rounded=0;" vertex="1" parent="1">
          <mxGeometry x="540" y="-350" width="60" height="30" as="geometry" />
        </mxCell>
        <mxCell id="h8qzJcYPZAnJOUNbfXsu-14" value="" style="endArrow=classic;html=1;rounded=0;exitX=1;exitY=0.5;exitDx=0;exitDy=0;entryX=0;entryY=0.75;entryDx=0;entryDy=0;" edge="1" parent="1" source="h8qzJcYPZAnJOUNbfXsu-2">
          <mxGeometry width="50" height="50" relative="1" as="geometry">
            <mxPoint x="590" y="-270" as="sourcePoint" />
            <mxPoint x="510" y="-457.5" as="targetPoint" />
          </mxGeometry>
        </mxCell>
        <mxCell id="h8qzJcYPZAnJOUNbfXsu-16" value="" style="rounded=0;whiteSpace=wrap;html=1;" vertex="1" parent="1">
          <mxGeometry x="40" y="-740" width="120" height="200" as="geometry" />
        </mxCell>
        <mxCell id="h8qzJcYPZAnJOUNbfXsu-17" value="login" style="text;html=1;strokeColor=none;fillColor=none;align=center;verticalAlign=middle;whiteSpace=wrap;rounded=0;" vertex="1" parent="1">
          <mxGeometry x="70" y="-730" width="60" height="30" as="geometry" />
        </mxCell>
        <mxCell id="h8qzJcYPZAnJOUNbfXsu-18" value="user&lt;br&gt;" style="text;html=1;strokeColor=none;fillColor=none;align=center;verticalAlign=middle;whiteSpace=wrap;rounded=0;" vertex="1" parent="1">
          <mxGeometry x="70" y="-690" width="60" height="30" as="geometry" />
        </mxCell>
        <mxCell id="h8qzJcYPZAnJOUNbfXsu-19" value="password&lt;br&gt;" style="text;html=1;strokeColor=none;fillColor=none;align=center;verticalAlign=middle;whiteSpace=wrap;rounded=0;" vertex="1" parent="1">
          <mxGeometry x="70" y="-640" width="60" height="30" as="geometry" />
        </mxCell>
        <mxCell id="h8qzJcYPZAnJOUNbfXsu-20" value="" style="rounded=0;whiteSpace=wrap;html=1;" vertex="1" parent="1">
          <mxGeometry x="75" y="-660" width="50" height="20" as="geometry" />
        </mxCell>
        <mxCell id="h8qzJcYPZAnJOUNbfXsu-21" value="" style="rounded=0;whiteSpace=wrap;html=1;" vertex="1" parent="1">
          <mxGeometry x="75" y="-610" width="50" height="20" as="geometry" />
        </mxCell>
        <mxCell id="h8qzJcYPZAnJOUNbfXsu-22" value="" style="endArrow=classic;html=1;rounded=0;exitX=1.017;exitY=0.456;exitDx=0;exitDy=0;exitPerimeter=0;" edge="1" parent="1" source="h8qzJcYPZAnJOUNbfXsu-16">
          <mxGeometry width="50" height="50" relative="1" as="geometry">
            <mxPoint x="350" y="-270" as="sourcePoint" />
            <mxPoint x="280" y="-460" as="targetPoint" />
          </mxGeometry>
        </mxCell>
        <mxCell id="h8qzJcYPZAnJOUNbfXsu-23" value="login successful" style="text;html=1;strokeColor=none;fillColor=none;align=center;verticalAlign=middle;whiteSpace=wrap;rounded=0;" vertex="1" parent="1">
          <mxGeometry x="180" y="-700" width="60" height="30" as="geometry" />
        </mxCell>
        <mxCell id="h8qzJcYPZAnJOUNbfXsu-25" value="" style="rounded=0;whiteSpace=wrap;html=1;" vertex="1" parent="1">
          <mxGeometry x="15" y="-405" width="120" height="200" as="geometry" />
        </mxCell>
        <mxCell id="h8qzJcYPZAnJOUNbfXsu-26" value="register&lt;br&gt;" style="text;html=1;strokeColor=none;fillColor=none;align=center;verticalAlign=middle;whiteSpace=wrap;rounded=0;" vertex="1" parent="1">
          <mxGeometry x="45" y="-395" width="60" height="30" as="geometry" />
        </mxCell>
        <mxCell id="h8qzJcYPZAnJOUNbfXsu-27" value="user&lt;br&gt;" style="text;html=1;strokeColor=none;fillColor=none;align=center;verticalAlign=middle;whiteSpace=wrap;rounded=0;" vertex="1" parent="1">
          <mxGeometry x="45" y="-355" width="60" height="30" as="geometry" />
        </mxCell>
        <mxCell id="h8qzJcYPZAnJOUNbfXsu-28" value="password&lt;br&gt;" style="text;html=1;strokeColor=none;fillColor=none;align=center;verticalAlign=middle;whiteSpace=wrap;rounded=0;" vertex="1" parent="1">
          <mxGeometry x="45" y="-305" width="60" height="30" as="geometry" />
        </mxCell>
        <mxCell id="h8qzJcYPZAnJOUNbfXsu-29" value="" style="rounded=0;whiteSpace=wrap;html=1;" vertex="1" parent="1">
          <mxGeometry x="50" y="-325" width="50" height="20" as="geometry" />
        </mxCell>
        <mxCell id="h8qzJcYPZAnJOUNbfXsu-30" value="" style="rounded=0;whiteSpace=wrap;html=1;" vertex="1" parent="1">
          <mxGeometry x="50" y="-265" width="50" height="20" as="geometry" />
        </mxCell>
        <mxCell id="h8qzJcYPZAnJOUNbfXsu-31" value="" style="curved=1;endArrow=classic;html=1;rounded=0;exitX=0.75;exitY=0;exitDx=0;exitDy=0;entryX=0.25;entryY=0;entryDx=0;entryDy=0;" edge="1" parent="1" source="h8qzJcYPZAnJOUNbfXsu-16" target="h8qzJcYPZAnJOUNbfXsu-16">
          <mxGeometry width="50" height="50" relative="1" as="geometry">
            <mxPoint x="350" y="-480" as="sourcePoint" />
            <mxPoint x="400" y="-530" as="targetPoint" />
            <Array as="points">
              <mxPoint x="150" y="-830" />
              <mxPoint x="60" y="-830" />
            </Array>
          </mxGeometry>
        </mxCell>
        <mxCell id="h8qzJcYPZAnJOUNbfXsu-32" value="wrong login" style="text;html=1;strokeColor=none;fillColor=none;align=center;verticalAlign=middle;whiteSpace=wrap;rounded=0;" vertex="1" parent="1">
          <mxGeometry x="70" y="-880" width="60" height="30" as="geometry" />
        </mxCell>
        <mxCell id="h8qzJcYPZAnJOUNbfXsu-33" value="" style="endArrow=classic;html=1;rounded=0;exitX=1.043;exitY=0.072;exitDx=0;exitDy=0;exitPerimeter=0;entryX=0;entryY=0;entryDx=0;entryDy=0;" edge="1" parent="1" source="h8qzJcYPZAnJOUNbfXsu-25" target="h8qzJcYPZAnJOUNbfXsu-67">
          <mxGeometry width="50" height="50" relative="1" as="geometry">
            <mxPoint x="350" y="-230" as="sourcePoint" />
            <mxPoint x="400" y="-280" as="targetPoint" />
          </mxGeometry>
        </mxCell>
        <mxCell id="h8qzJcYPZAnJOUNbfXsu-34" value="register account if doesn&#39;t already exists" style="text;html=1;strokeColor=none;fillColor=none;align=center;verticalAlign=middle;whiteSpace=wrap;rounded=0;" vertex="1" parent="1">
          <mxGeometry x="150" y="-390" width="120" height="30" as="geometry" />
        </mxCell>
        <mxCell id="h8qzJcYPZAnJOUNbfXsu-35" value="" style="curved=1;endArrow=classic;html=1;rounded=0;exitX=0.643;exitY=-0.008;exitDx=0;exitDy=0;exitPerimeter=0;entryX=0.25;entryY=0;entryDx=0;entryDy=0;" edge="1" parent="1" source="h8qzJcYPZAnJOUNbfXsu-25" target="h8qzJcYPZAnJOUNbfXsu-25">
          <mxGeometry width="50" height="50" relative="1" as="geometry">
            <mxPoint x="325" y="-375" as="sourcePoint" />
            <mxPoint x="375" y="-425" as="targetPoint" />
            <Array as="points">
              <mxPoint x="115" y="-445" />
              <mxPoint x="35" y="-445" />
            </Array>
          </mxGeometry>
        </mxCell>
        <mxCell id="h8qzJcYPZAnJOUNbfXsu-36" value="user already registered&lt;br&gt;" style="text;html=1;strokeColor=none;fillColor=none;align=center;verticalAlign=middle;whiteSpace=wrap;rounded=0;" vertex="1" parent="1">
          <mxGeometry x="100" y="-445" width="60" height="30" as="geometry" />
        </mxCell>
        <mxCell id="h8qzJcYPZAnJOUNbfXsu-40" value="remove" style="text;html=1;strokeColor=none;fillColor=none;align=center;verticalAlign=middle;whiteSpace=wrap;rounded=0;" vertex="1" parent="1">
          <mxGeometry x="495" y="-650" width="60" height="30" as="geometry" />
        </mxCell>
        <mxCell id="h8qzJcYPZAnJOUNbfXsu-41" value="edit&lt;br&gt;" style="text;html=1;strokeColor=none;fillColor=none;align=center;verticalAlign=middle;whiteSpace=wrap;rounded=0;" vertex="1" parent="1">
          <mxGeometry x="555" y="-650" width="60" height="30" as="geometry" />
        </mxCell>
        <mxCell id="h8qzJcYPZAnJOUNbfXsu-50" value="" style="rounded=0;whiteSpace=wrap;html=1;" vertex="1" parent="1">
          <mxGeometry x="305" y="-390" width="70" height="30" as="geometry" />
        </mxCell>
        <mxCell id="h8qzJcYPZAnJOUNbfXsu-51" value="new list" style="text;html=1;strokeColor=none;fillColor=none;align=center;verticalAlign=middle;whiteSpace=wrap;rounded=0;" vertex="1" parent="1">
          <mxGeometry x="305" y="-390" width="60" height="30" as="geometry" />
        </mxCell>
        <mxCell id="h8qzJcYPZAnJOUNbfXsu-53" value="" style="endArrow=classic;html=1;rounded=0;" edge="1" parent="1" target="h8qzJcYPZAnJOUNbfXsu-51">
          <mxGeometry width="50" height="50" relative="1" as="geometry">
            <mxPoint x="340" y="-350" as="sourcePoint" />
            <mxPoint x="310" y="-290" as="targetPoint" />
            <Array as="points">
              <mxPoint x="340" y="-340" />
            </Array>
          </mxGeometry>
        </mxCell>
        <mxCell id="h8qzJcYPZAnJOUNbfXsu-56" value="" style="endArrow=classic;html=1;rounded=0;exitX=0.25;exitY=1;exitDx=0;exitDy=0;entryX=0.25;entryY=0;entryDx=0;entryDy=0;" edge="1" parent="1" source="h8qzJcYPZAnJOUNbfXsu-2" target="h8qzJcYPZAnJOUNbfXsu-57">
          <mxGeometry width="50" height="50" relative="1" as="geometry">
            <mxPoint x="630" y="-382.5" as="sourcePoint" />
            <mxPoint x="390" y="-270" as="targetPoint" />
          </mxGeometry>
        </mxCell>
        <mxCell id="h8qzJcYPZAnJOUNbfXsu-57" value="" style="rounded=0;whiteSpace=wrap;html=1;" vertex="1" parent="1">
          <mxGeometry x="210" y="-265" width="120" height="190" as="geometry" />
        </mxCell>
        <mxCell id="h8qzJcYPZAnJOUNbfXsu-58" value="" style="rounded=0;whiteSpace=wrap;html=1;" vertex="1" parent="1">
          <mxGeometry x="230" y="-235" width="80" height="25" as="geometry" />
        </mxCell>
        <mxCell id="h8qzJcYPZAnJOUNbfXsu-59" value="list name" style="text;html=1;strokeColor=none;fillColor=none;align=center;verticalAlign=middle;whiteSpace=wrap;rounded=0;" vertex="1" parent="1">
          <mxGeometry x="240" y="-265" width="60" height="30" as="geometry" />
        </mxCell>
        <mxCell id="h8qzJcYPZAnJOUNbfXsu-61" value="" style="rounded=0;whiteSpace=wrap;html=1;" vertex="1" parent="1">
          <mxGeometry x="240" y="-195" width="63" height="20" as="geometry" />
        </mxCell>
        <mxCell id="h8qzJcYPZAnJOUNbfXsu-62" value="add" style="text;html=1;strokeColor=none;fillColor=none;align=center;verticalAlign=middle;whiteSpace=wrap;rounded=0;" vertex="1" parent="1">
          <mxGeometry x="243" y="-200" width="60" height="30" as="geometry" />
        </mxCell>
        <mxCell id="h8qzJcYPZAnJOUNbfXsu-63" value="&lt;font color=&quot;#ff3333&quot;&gt;list&amp;nbsp;needs to have a name before being added to the to do list&lt;/font&gt;" style="text;html=1;strokeColor=none;fillColor=none;align=center;verticalAlign=middle;whiteSpace=wrap;rounded=0;" vertex="1" parent="1">
          <mxGeometry x="215" y="-145" width="110" height="30" as="geometry" />
        </mxCell>
        <mxCell id="h8qzJcYPZAnJOUNbfXsu-65" value="remove" style="text;html=1;strokeColor=none;fillColor=none;align=center;verticalAlign=middle;whiteSpace=wrap;rounded=0;" vertex="1" parent="1">
          <mxGeometry x="280" y="-475" width="60" height="30" as="geometry" />
        </mxCell>
        <mxCell id="h8qzJcYPZAnJOUNbfXsu-66" value="edit&lt;br&gt;" style="text;html=1;strokeColor=none;fillColor=none;align=center;verticalAlign=middle;whiteSpace=wrap;rounded=0;" vertex="1" parent="1">
          <mxGeometry x="340" y="-475" width="60" height="30" as="geometry" />
        </mxCell>
        <mxCell id="h8qzJcYPZAnJOUNbfXsu-67" value="remove" style="text;html=1;strokeColor=none;fillColor=none;align=center;verticalAlign=middle;whiteSpace=wrap;rounded=0;" vertex="1" parent="1">
          <mxGeometry x="280" y="-425" width="60" height="30" as="geometry" />
        </mxCell>
        <mxCell id="h8qzJcYPZAnJOUNbfXsu-68" value="edit&lt;br&gt;" style="text;html=1;strokeColor=none;fillColor=none;align=center;verticalAlign=middle;whiteSpace=wrap;rounded=0;" vertex="1" parent="1">
          <mxGeometry x="340" y="-425" width="60" height="30" as="geometry" />
        </mxCell>
        <mxCell id="h8qzJcYPZAnJOUNbfXsu-69" value="click on list2" style="text;html=1;strokeColor=none;fillColor=none;align=center;verticalAlign=middle;whiteSpace=wrap;rounded=0;fontColor=#000000;" vertex="1" parent="1">
          <mxGeometry x="423" y="-500" width="60" height="30" as="geometry" />
        </mxCell>
        <mxCell id="h8qzJcYPZAnJOUNbfXsu-70" value="click on new list" style="text;html=1;strokeColor=none;fillColor=none;align=center;verticalAlign=middle;whiteSpace=wrap;rounded=0;fontColor=#000000;" vertex="1" parent="1">
          <mxGeometry x="215" y="-325" width="60" height="30" as="geometry" />
        </mxCell>
        <mxCell id="h8qzJcYPZAnJOUNbfXsu-72" value="remove" style="text;html=1;strokeColor=none;fillColor=none;align=center;verticalAlign=middle;whiteSpace=wrap;rounded=0;" vertex="1" parent="1">
          <mxGeometry x="510" y="-490" width="60" height="30" as="geometry" />
        </mxCell>
        <mxCell id="h8qzJcYPZAnJOUNbfXsu-73" value="edit&lt;br&gt;" style="text;html=1;strokeColor=none;fillColor=none;align=center;verticalAlign=middle;whiteSpace=wrap;rounded=0;" vertex="1" parent="1">
          <mxGeometry x="570" y="-490" width="60" height="30" as="geometry" />
        </mxCell>
        <mxCell id="h8qzJcYPZAnJOUNbfXsu-74" value="remove" style="text;html=1;strokeColor=none;fillColor=none;align=center;verticalAlign=middle;whiteSpace=wrap;rounded=0;" vertex="1" parent="1">
          <mxGeometry x="510" y="-415" width="60" height="30" as="geometry" />
        </mxCell>
        <mxCell id="h8qzJcYPZAnJOUNbfXsu-75" value="edit&lt;br&gt;" style="text;html=1;strokeColor=none;fillColor=none;align=center;verticalAlign=middle;whiteSpace=wrap;rounded=0;" vertex="1" parent="1">
          <mxGeometry x="570" y="-415" width="60" height="30" as="geometry" />
        </mxCell>
        <mxCell id="h8qzJcYPZAnJOUNbfXsu-76" value="remove" style="text;html=1;strokeColor=none;fillColor=none;align=center;verticalAlign=middle;whiteSpace=wrap;rounded=0;" vertex="1" parent="1">
          <mxGeometry x="510" y="-320" width="60" height="30" as="geometry" />
        </mxCell>
        <mxCell id="h8qzJcYPZAnJOUNbfXsu-77" value="edit&lt;br&gt;" style="text;html=1;strokeColor=none;fillColor=none;align=center;verticalAlign=middle;whiteSpace=wrap;rounded=0;" vertex="1" parent="1">
          <mxGeometry x="570" y="-320" width="60" height="30" as="geometry" />
        </mxCell>
        <mxCell id="h8qzJcYPZAnJOUNbfXsu-79" value="" style="rounded=0;whiteSpace=wrap;html=1;fontColor=#000000;fillColor=#CCCCFF;" vertex="1" parent="1">
          <mxGeometry x="535" y="-290" width="70" height="30" as="geometry" />
        </mxCell>
        <mxCell id="h8qzJcYPZAnJOUNbfXsu-80" value="new task" style="text;html=1;strokeColor=none;fillColor=none;align=center;verticalAlign=middle;whiteSpace=wrap;rounded=0;fontColor=#000000;" vertex="1" parent="1">
          <mxGeometry x="540" y="-290" width="60" height="30" as="geometry" />
        </mxCell>
        <mxCell id="h8qzJcYPZAnJOUNbfXsu-81" value="" style="endArrow=classic;html=1;rounded=0;fontColor=#000000;exitX=1;exitY=0.152;exitDx=0;exitDy=0;exitPerimeter=0;entryX=-0.013;entryY=0.38;entryDx=0;entryDy=0;entryPerimeter=0;" edge="1" parent="1" source="h8qzJcYPZAnJOUNbfXsu-7" target="h8qzJcYPZAnJOUNbfXsu-82">
          <mxGeometry width="50" height="50" relative="1" as="geometry">
            <mxPoint x="470" y="-310" as="sourcePoint" />
            <mxPoint x="670" y="-504" as="targetPoint" />
          </mxGeometry>
        </mxCell>
        <mxCell id="h8qzJcYPZAnJOUNbfXsu-82" value="" style="rounded=0;whiteSpace=wrap;html=1;" vertex="1" parent="1">
          <mxGeometry x="730" y="-550" width="120" height="120" as="geometry" />
        </mxCell>
        <mxCell id="h8qzJcYPZAnJOUNbfXsu-83" value="edit task 1" style="text;html=1;strokeColor=none;fillColor=none;align=center;verticalAlign=middle;whiteSpace=wrap;rounded=0;fontColor=#000000;" vertex="1" parent="1">
          <mxGeometry x="760" y="-547.5" width="60" height="30" as="geometry" />
        </mxCell>
        <mxCell id="h8qzJcYPZAnJOUNbfXsu-84" value="" style="rounded=0;whiteSpace=wrap;html=1;" vertex="1" parent="1">
          <mxGeometry x="750" y="-497.5" width="80" height="20" as="geometry" />
        </mxCell>
        <mxCell id="h8qzJcYPZAnJOUNbfXsu-87" value="" style="rounded=0;whiteSpace=wrap;html=1;" vertex="1" parent="1">
          <mxGeometry x="750" y="-467.5" width="80" height="20" as="geometry" />
        </mxCell>
        <mxCell id="h8qzJcYPZAnJOUNbfXsu-88" value="change name" style="text;html=1;strokeColor=none;fillColor=none;align=center;verticalAlign=middle;whiteSpace=wrap;rounded=0;fontColor=#000000;" vertex="1" parent="1">
          <mxGeometry x="750" y="-472.5" width="80" height="30" as="geometry" />
        </mxCell>
        <mxCell id="h8qzJcYPZAnJOUNbfXsu-90" value="" style="rounded=0;whiteSpace=wrap;html=1;" vertex="1" parent="1">
          <mxGeometry x="730" y="-410" width="120" height="235" as="geometry" />
        </mxCell>
        <mxCell id="h8qzJcYPZAnJOUNbfXsu-91" value="list 2&lt;br&gt;" style="text;html=1;align=center;verticalAlign=middle;resizable=0;points=[];autosize=1;strokeColor=none;fillColor=none;" vertex="1" parent="1">
          <mxGeometry x="765" y="-400" width="50" height="30" as="geometry" />
        </mxCell>
        <mxCell id="h8qzJcYPZAnJOUNbfXsu-92" value="task 1" style="text;html=1;strokeColor=none;fillColor=none;align=center;verticalAlign=middle;whiteSpace=wrap;rounded=0;" vertex="1" parent="1">
          <mxGeometry x="760" y="-370" width="60" height="30" as="geometry" />
        </mxCell>
        <mxCell id="h8qzJcYPZAnJOUNbfXsu-93" value="task 2" style="text;html=1;strokeColor=none;fillColor=none;align=center;verticalAlign=middle;whiteSpace=wrap;rounded=0;" vertex="1" parent="1">
          <mxGeometry x="755" y="-295" width="60" height="30" as="geometry" />
        </mxCell>
        <mxCell id="h8qzJcYPZAnJOUNbfXsu-95" value="remove" style="text;html=1;strokeColor=none;fillColor=none;align=center;verticalAlign=middle;whiteSpace=wrap;rounded=0;" vertex="1" parent="1">
          <mxGeometry x="730" y="-350" width="60" height="30" as="geometry" />
        </mxCell>
        <mxCell id="h8qzJcYPZAnJOUNbfXsu-96" value="edit&lt;br&gt;" style="text;html=1;strokeColor=none;fillColor=none;align=center;verticalAlign=middle;whiteSpace=wrap;rounded=0;" vertex="1" parent="1">
          <mxGeometry x="790" y="-350" width="60" height="30" as="geometry" />
        </mxCell>
        <mxCell id="h8qzJcYPZAnJOUNbfXsu-97" value="remove" style="text;html=1;strokeColor=none;fillColor=none;align=center;verticalAlign=middle;whiteSpace=wrap;rounded=0;" vertex="1" parent="1">
          <mxGeometry x="730" y="-275" width="60" height="30" as="geometry" />
        </mxCell>
        <mxCell id="h8qzJcYPZAnJOUNbfXsu-98" value="edit&lt;br&gt;" style="text;html=1;strokeColor=none;fillColor=none;align=center;verticalAlign=middle;whiteSpace=wrap;rounded=0;" vertex="1" parent="1">
          <mxGeometry x="790" y="-275" width="60" height="30" as="geometry" />
        </mxCell>
        <mxCell id="h8qzJcYPZAnJOUNbfXsu-101" value="" style="rounded=0;whiteSpace=wrap;html=1;fontColor=#000000;fillColor=#CCCCFF;" vertex="1" parent="1">
          <mxGeometry x="755" y="-225" width="70" height="30" as="geometry" />
        </mxCell>
        <mxCell id="h8qzJcYPZAnJOUNbfXsu-102" value="new task" style="text;html=1;align=center;verticalAlign=middle;whiteSpace=wrap;rounded=0;" vertex="1" parent="1">
          <mxGeometry x="760" y="-225" width="60" height="30" as="geometry" />
        </mxCell>
        <mxCell id="h8qzJcYPZAnJOUNbfXsu-103" value="" style="endArrow=classic;html=1;rounded=0;fontColor=#000000;exitX=1;exitY=0.152;exitDx=0;exitDy=0;exitPerimeter=0;entryX=-0.013;entryY=0.38;entryDx=0;entryDy=0;entryPerimeter=0;" edge="1" parent="1">
          <mxGeometry width="50" height="50" relative="1" as="geometry">
            <mxPoint x="631.56" y="-290.0000000000001" as="sourcePoint" />
            <mxPoint x="730" y="-290.0000000000001" as="targetPoint" />
          </mxGeometry>
        </mxCell>
        <mxCell id="h8qzJcYPZAnJOUNbfXsu-104" value="task 3 removed" style="text;html=1;strokeColor=none;fillColor=none;align=center;verticalAlign=middle;whiteSpace=wrap;rounded=0;fontColor=#000000;" vertex="1" parent="1">
          <mxGeometry x="650" y="-325" width="60" height="30" as="geometry" />
        </mxCell>
        <mxCell id="h8qzJcYPZAnJOUNbfXsu-105" value="" style="endArrow=classic;html=1;rounded=0;fontColor=#000000;exitX=0.5;exitY=1;exitDx=0;exitDy=0;" edge="1" parent="1" source="h8qzJcYPZAnJOUNbfXsu-7" target="h8qzJcYPZAnJOUNbfXsu-106">
          <mxGeometry width="50" height="50" relative="1" as="geometry">
            <mxPoint x="470" y="-260" as="sourcePoint" />
            <mxPoint x="570" y="-190" as="targetPoint" />
          </mxGeometry>
        </mxCell>
        <mxCell id="h8qzJcYPZAnJOUNbfXsu-106" value="" style="rounded=0;whiteSpace=wrap;html=1;" vertex="1" parent="1">
          <mxGeometry x="510" y="-195" width="120" height="135" as="geometry" />
        </mxCell>
        <mxCell id="h8qzJcYPZAnJOUNbfXsu-107" value="new task" style="text;html=1;strokeColor=none;fillColor=none;align=center;verticalAlign=middle;whiteSpace=wrap;rounded=0;fontColor=#000000;" vertex="1" parent="1">
          <mxGeometry x="540" y="-185" width="60" height="30" as="geometry" />
        </mxCell>
        <mxCell id="h8qzJcYPZAnJOUNbfXsu-108" value="" style="rounded=0;whiteSpace=wrap;html=1;" vertex="1" parent="1">
          <mxGeometry x="535" y="-155" width="70" height="20" as="geometry" />
        </mxCell>
        <mxCell id="h8qzJcYPZAnJOUNbfXsu-110" value="" style="rounded=0;whiteSpace=wrap;html=1;" vertex="1" parent="1">
          <mxGeometry x="535" y="-115" width="70" height="20" as="geometry" />
        </mxCell>
        <mxCell id="h8qzJcYPZAnJOUNbfXsu-111" value="add" style="text;html=1;strokeColor=none;fillColor=none;align=center;verticalAlign=middle;whiteSpace=wrap;rounded=0;fontColor=#000000;" vertex="1" parent="1">
          <mxGeometry x="540" y="-120" width="60" height="30" as="geometry" />
        </mxCell>
      </root>
    </mxGraphModel>
  </diagram>
</mxfile>
